<?xml version="1.0" encoding="UTF-8"?>
<svg id="Layer_1" data-name="Layer 1" xmlns="http://www.w3.org/2000/svg" viewBox="0 0 528.6 902.5">
  <defs>
    <style>
      .cls-1 {
        stroke-width: 0px;
        fill: #FC4308;
      }
    </style>
  </defs>
  <g>
    <rect class="cls-1" x="184.97" y="371.1" width="157.83" height="157.83" rx="19.5" ry="19.5"/>
    <path class="cls-1" d="m323.3,371.6c10.48,0,19,8.52,19,19v118.83c0,10.48-8.52,19-19,19h-118.83c-10.48,0-19-8.52-19-19v-118.83c0-10.48,8.52-19,19-19h118.83m0-1h-118.83c-11.05,0-20,8.95-20,20v118.83c0,11.05,8.95,20,20,20h118.83c11.05,0,20-8.95,20-20v-118.83c0-11.05-8.95-20-20-20h0Z"/>
  </g>
  <g>
    <rect class="cls-1" x="184.97" y="185.8" width="157.83" height="157.83" rx="19.5" ry="19.5"/>
    <path class="cls-1" d="m323.3,186.3c10.48,0,19,8.52,19,19v118.83c0,10.48-8.52,19-19,19h-118.83c-10.48,0-19-8.52-19-19v-118.83c0-10.48,8.52-19,19-19h118.83m0-1h-118.83c-11.05,0-20,8.95-20,20v118.83c0,11.05,8.95,20,20,20h118.83c11.05,0,20-8.95,20-20v-118.83c0-11.05-8.95-20-20-20h0Z"/>
  </g>
  <g>
    <rect class="cls-1" x="184.97" y=".5" width="157.83" height="157.83" rx="19.5" ry="19.5"/>
    <path class="cls-1" d="m323.3,1c10.48,0,19,8.52,19,19v118.83c0,10.48-8.52,19-19,19h-118.83c-10.48,0-19-8.52-19-19V20c0-10.48,8.52-19,19-19h118.83m0-1h-118.83c-11.05,0-20,8.95-20,20v118.83c0,11.05,8.95,20,20,20h118.83c11.05,0,20-8.95,20-20V20c0-11.05-8.95-20-20-20h0Z"/>
  </g>
  <g>
    <path class="cls-1" d="m389.77,528.92c-10.75,0-19.5-8.75-19.5-19.5v-138.33h157.83v138.33c0,10.75-8.75,19.5-19.5,19.5h-118.83Z"/>
    <path class="cls-1" d="m527.6,371.6v137.83c0,10.48-8.52,19-19,19h-118.83c-10.48,0-19-8.52-19-19v-137.83h156.83m1-1h-158.83v138.83c0,11.05,8.95,20,20,20h118.83c11.05,0,20-8.95,20-20v-138.83h0Z"/>
  </g>
  <g>
    <path class="cls-1" d="m370.27,158.33V20c0-10.75,8.75-19.5,19.5-19.5h118.83c10.75,0,19.5,8.75,19.5,19.5v138.33h-157.83Z"/>
    <path class="cls-1" d="m508.6,1c10.48,0,19,8.52,19,19v137.83h-156.83V20c0-10.48,8.52-19,19-19h118.83m0-1h-118.83c-11.05,0-20,8.95-20,20v138.83h158.83V20c0-11.05-8.95-20-20-20h0Z"/>
  </g>
  <g>
    <rect class="cls-1" x="370.27" y="159.33" width="157.83" height="51.94"/>
    <path class="cls-1" d="m527.6,159.83v50.94h-156.83v-50.94h156.83m1-1h-158.83v52.94h158.83v-52.94h0Z"/>
  </g>
  <g>
    <rect class="cls-1" x="370.27" y="212.27" width="157.83" height="157.83"/>
    <path class="cls-1" d="m527.6,212.77v156.83h-156.83v-156.83h156.83m1-1h-158.83v158.83h158.83v-158.83h0Z"/>
  </g>
  <g>
    <path class="cls-1" d="m20,902c-10.75,0-19.5-8.75-19.5-19.5v-138.33h157.83v138.33c0,10.75-8.75,19.5-19.5,19.5H20Z"/>
    <path class="cls-1" d="m157.83,744.67v137.83c0,10.48-8.52,19-19,19H20c-10.48,0-19-8.52-19-19v-137.83h156.83m1-1H0v138.83c0,11.05,8.95,20,20,20h118.83c11.05,0,20-8.95,20-20v-138.83h0Z"/>
  </g>
  <g>
    <path class="cls-1" d="m.5,531.4v-138.33c0-10.75,8.75-19.5,19.5-19.5h118.83c10.75,0,19.5,8.75,19.5,19.5v138.33H.5Z"/>
    <path class="cls-1" d="m138.83,374.08c10.48,0,19,8.52,19,19v137.83H1v-137.83c0-10.48,8.52-19,19-19h118.83m0-1H20c-11.05,0-20,8.95-20,20v138.83h158.83v-138.83c0-11.05-8.95-20-20-20h0Z"/>
  </g>
  <g>
    <rect class="cls-1" x=".5" y="532.4" width="157.83" height="51.94"/>
    <path class="cls-1" d="m157.83,532.9v50.94H1v-50.94h156.83m1-1H0v52.94h158.83v-52.94h0Z"/>
  </g>
  <g>
    <rect class="cls-1" x=".5" y="585.35" width="157.83" height="157.83"/>
    <path class="cls-1" d="m157.83,585.85v156.83H1v-156.83h156.83m1-1H0v158.83h158.83v-158.83h0Z"/>
  </g>
</svg>