<?xml version="1.0" encoding="utf-8"?>
<!-- Generator: Adobe Illustrator 28.0.0, SVG Export Plug-In . SVG Version: 6.00 Build 0)  -->
<svg version="1.1" id="Layer_1" xmlns="http://www.w3.org/2000/svg" xmlns:xlink="http://www.w3.org/1999/xlink" x="0px" y="0px"
	 viewBox="0 0 1280 1024" style="enable-background:new 0 0 1280 1024;" xml:space="preserve">
<g>
	<circle cx="757" cy="503" r="47.5"/>
	<path d="M757,456c25.92,0,47,21.08,47,47c0,25.92-21.08,47-47,47c-25.92,0-47-21.08-47-47C710,477.08,731.08,456,757,456 M757,455
		L757,455c-26.51,0-48,21.49-48,48v0c0,26.51,21.49,48,48,48h0c26.51,0,48-21.49,48-48v0C805,476.49,783.51,455,757,455L757,455z"/>
</g>
<g>
	<circle cx="757" cy="391" r="47.5"/>
	<path d="M757,344c25.92,0,47,21.08,47,47c0,25.92-21.08,47-47,47c-25.92,0-47-21.08-47-47C710,365.08,731.08,344,757,344 M757,343
		L757,343c-26.51,0-48,21.49-48,48v0c0,26.51,21.49,48,48,48h0c26.51,0,48-21.49,48-48v0C805,364.49,783.51,343,757,343L757,343z"/>
</g>
<g>
	<circle cx="757" cy="279" r="47.5"/>
	<path d="M757,232c25.92,0,47,21.08,47,47c0,25.92-21.08,47-47,47c-25.92,0-47-21.08-47-47C710,253.08,731.08,232,757,232 M757,231
		L757,231c-26.51,0-48,21.49-48,48v0c0,26.51,21.49,48,48,48h0c26.51,0,48-21.49,48-48v0C805,252.49,783.51,231,757,231L757,231z"/>
</g>
<g>
	<g>
		<rect x="597.5" y="551.5" width="95" height="95"/>
		<path d="M692,552v94h-94v-94H692 M693,551h-96v96h96V551L693,551z"/>
	</g>
	<g>
		<path d="M597.5,742.5v-95h95V711c0,17.37-14.13,31.5-31.5,31.5H597.5z"/>
		<path d="M692,648v63c0,17.09-13.91,31-31,31h-63v-94H692 M693,647h-96v96h64c17.67,0,32-14.33,32-32V647L693,647z"/>
	</g>
	<g>
		<path d="M597.5,550.5V487c0-17.37,14.13-31.5,31.5-31.5h63.5v95H597.5z"/>
		<path d="M692,456v94h-94v-63c0-17.09,13.91-31,31-31H692 M693,455h-64c-17.67,0-32,14.33-32,32v64h96V455L693,455z"/>
	</g>
</g>
<g>
	<g>
		<path d="M821.5,550.5v-95h95V519c0,17.37-14.13,31.5-31.5,31.5H821.5z"/>
		<path d="M916,456v63c0,17.09-13.91,31-31,31h-63v-94H916 M917,455h-96v96h64c17.67,0,32-14.33,32-32V455L917,455z"/>
	</g>
	<g>
		<path d="M821.5,326.5V263c0-17.37,14.13-31.5,31.5-31.5h63.5v95H821.5z"/>
		<path d="M916,232v94h-94v-63c0-17.09,13.91-31,31-31H916 M917,231h-64c-17.67,0-32,14.33-32,32v64h96V231L917,231z"/>
	</g>
	<g>
		<rect x="821.5" y="327.5" width="95" height="31"/>
		<path d="M916,328v30h-94v-30H916 M917,327h-96v32h96V327L917,327z"/>
	</g>
	<g>
		<rect x="821.5" y="359.5" width="95" height="95"/>
		<path d="M916,360v94h-94v-94H916 M917,359h-96v96h96V359L917,359z"/>
	</g>
</g>
</svg>
